<?xml version="1.0" encoding="UTF-8"?>
<!DOCTYPE svg PUBLIC "-//W3C//DTD SVG 1.1//EN" "http://www.w3.org/Graphics/SVG/1.1/DTD/svg11.dtd">
<svg xmlns="http://www.w3.org/2000/svg" version="1.1" width="180px" height="180px" style="shape-rendering:geometricPrecision; text-rendering:geometricPrecision; image-rendering:optimizeQuality; fill-rule:evenodd; clip-rule:evenodd" xmlns:xlink="http://www.w3.org/1999/xlink">
<g><path style="opacity:0.004" fill="#786561" d="M 61.5,26.5 C 60.7611,26.631 60.0944,26.4643 59.5,26C 60.4368,25.3083 61.1034,25.475 61.5,26.5 Z"/></g>
<g><path style="opacity:0.004" fill="#786561" d="M 89.5,26.5 C 89.8966,25.475 90.5632,25.3083 91.5,26C 90.9056,26.4643 90.2389,26.631 89.5,26.5 Z"/></g>
<g><path style="opacity:0.004" fill="#786561" d="M 58.5,27.5 C 57.8333,26.1667 57.8333,26.1667 58.5,27.5 Z"/></g>
<g><path style="opacity:0.004" fill="#786561" d="M 94.5,27.5 C 93.7611,27.631 93.0944,27.4643 92.5,27C 93.4368,26.3083 94.1034,26.475 94.5,27.5 Z"/></g>
<g><path style="opacity:0.004" fill="#786561" d="M 94.5,27.5 C 95.8333,28.1667 95.8333,28.1667 94.5,27.5 Z"/></g>
<g><path style="opacity:0.004" fill="#786561" d="M 54.5,32.5 C 53.475,32.1034 53.3083,31.4368 54,30.5C 54.4643,31.0944 54.631,31.7611 54.5,32.5 Z"/></g>
<g><path style="opacity:0.004" fill="#786561" d="M 99.5,30.5 C 100.833,31.1667 100.833,31.1667 99.5,30.5 Z"/></g>
<g><path style="opacity:1" fill="#a28f8f" d="M 112.5,46.5 C 111.118,41.9224 108.118,40.4224 103.5,42C 99.0074,44.079 94.674,46.4123 90.5,49C 82.7748,54.5189 75.1081,60.0189 67.5,65.5C 67.1667,66.1667 66.8333,66.8333 66.5,67.5C 62.7799,70.2183 59.7799,73.5516 57.5,77.5C 59.2347,80.7434 61.5681,83.5767 64.5,86C 72.3598,92.0267 80.3598,97.86 88.5,103.5C 92.0608,101.221 95.7274,99.2212 99.5,97.5C 95.9797,101.43 91.6463,104.096 86.5,105.5C 81.1146,103.797 76.1146,101.631 71.5,99C 76.128,104.626 81.7947,108.126 88.5,109.5C 86.1655,114.838 83.8321,120.172 81.5,125.5C 76.0105,127.971 72.6772,126.304 71.5,120.5C 73.4299,115.348 73.9299,110.014 73,104.5C 72.0332,101.379 70.1999,99.046 67.5,97.5C 62.9106,92.0801 57.744,87.0801 52,82.5C 51.3623,81.3914 50.8623,80.2247 50.5,79C 51.8614,75.1108 53.3614,71.2775 55,67.5C 56.7966,55.5686 57.7966,43.5686 58,31.5C 69.7112,26.3662 81.5445,26.1995 93.5,31C 97.2612,32.7628 100.428,35.2628 103,38.5C 108.249,38.2546 111.749,40.5879 113.5,45.5C 113.376,46.1067 113.043,46.44 112.5,46.5 Z"/></g>
<g><path style="opacity:0.004" fill="#786561" d="M 103.5,35.5 C 103.897,34.475 104.563,34.3083 105.5,35C 104.906,35.4643 104.239,35.631 103.5,35.5 Z"/></g>
<g><path style="opacity:0.004" fill="#786561" d="M 54.5,41.5 C 54.6641,44.1873 54.4974,46.854 54,49.5C 53.1993,46.633 53.3659,43.9664 54.5,41.5 Z"/></g>
<g><path style="opacity:0.004" fill="#786561" d="M 115.5,41.5 C 116.833,42.1667 116.833,42.1667 115.5,41.5 Z"/></g>
<g><path style="opacity:0.004" fill="#786561" d="M 116.5,45.5 C 116.369,44.7611 116.536,44.0944 117,43.5C 117.692,44.4368 117.525,45.1034 116.5,45.5 Z"/></g>
<g><path style="opacity:0.004" fill="#786561" d="M 118.5,52.5 C 118.351,51.448 118.517,50.448 119,49.5C 119.74,50.7494 119.573,51.7494 118.5,52.5 Z"/></g>
<g><path style="opacity:0.004" fill="#786561" d="M 119.5,57.5 C 119.343,56.1266 119.51,54.7932 120,53.5C 120.765,55.0657 120.598,56.3991 119.5,57.5 Z"/></g>
<g><path style="opacity:0.004" fill="#786561" d="M 52.5,63.5 C 51.3775,61.7116 51.2109,59.7116 52,57.5C 52.4955,59.4727 52.6621,61.4727 52.5,63.5 Z"/></g>
<g><path style="opacity:0.004" fill="#786561" d="M 120.5,59.5 C 121.598,60.6009 121.765,61.9343 121,63.5C 120.51,62.2068 120.343,60.8734 120.5,59.5 Z"/></g>
<g><path style="opacity:0.004" fill="#786561" d="M 51.5,69.5 C 51.1667,69.5 50.8333,69.5 50.5,69.5C 50.8333,64.1667 51.1667,64.1667 51.5,69.5 Z"/></g>
<g><path style="opacity:0.004" fill="#786561" d="M 50.5,69.5 C 49.8333,70.1667 49.8333,70.1667 50.5,69.5 Z"/></g>
<g><path style="opacity:0.004" fill="#786561" d="M 48.5,74.5 C 47.8333,73.1667 47.8333,73.1667 48.5,74.5 Z"/></g>
<g><path style="opacity:0.004" fill="#786561" d="M 47.5,81.5 C 46.3775,79.7116 46.2109,77.7116 47,75.5C 47.4955,77.4727 47.6621,79.4727 47.5,81.5 Z"/></g>
<g><path style="opacity:0.004" fill="#786561" d="M 47.5,81.5 C 47.8333,81.5 48.1667,81.5 48.5,81.5C 48.3147,82.1701 47.9813,82.1701 47.5,81.5 Z"/></g>
<g><path style="opacity:0.004" fill="#786561" d="M 119.5,85.5 C 120.833,86.1667 120.833,86.1667 119.5,85.5 Z"/></g>
<g><path style="opacity:0.004" fill="#786561" d="M 118.5,86.5 C 118.833,86.5 119.167,86.5 119.5,86.5C 119.315,87.1701 118.981,87.1701 118.5,86.5 Z"/></g>
<g><path style="opacity:0.004" fill="#786561" d="M 117.5,87.5 C 117.833,87.5 118.167,87.5 118.5,87.5C 118.315,88.1701 117.981,88.1701 117.5,87.5 Z"/></g>
<g><path style="opacity:0.004" fill="#786561" d="M 114.5,90.5 C 115.833,91.1667 115.833,91.1667 114.5,90.5 Z"/></g>
<g><path style="opacity:0.004" fill="#786561" d="M 113.5,91.5 C 113.833,91.5 114.167,91.5 114.5,91.5C 114.315,92.1701 113.981,92.1701 113.5,91.5 Z"/></g>
<g><path style="opacity:0.004" fill="#786561" d="M 59.5,92.5 C 58.8333,93.1667 58.8333,93.1667 59.5,92.5 Z"/></g>
<g><path style="opacity:0.004" fill="#786561" d="M 52.5,96.5 C 51.8333,95.1667 51.8333,95.1667 52.5,96.5 Z"/></g>
<g><path style="opacity:0.004" fill="#786561" d="M 107.5,95.5 C 108.833,96.1667 108.833,96.1667 107.5,95.5 Z"/></g>
<g><path style="opacity:1" fill="#2f2424" d="M 115.5,58.5 C 116.598,65.8066 117.098,73.14 117,80.5C 112.636,86.0297 107.802,91.0297 102.5,95.5C 100.973,95.427 99.9731,96.0937 99.5,97.5C 95.7274,99.2212 92.0608,101.221 88.5,103.5C 80.3598,97.86 72.3598,92.0267 64.5,86C 61.5681,83.5767 59.2347,80.7434 57.5,77.5C 59.7799,73.5516 62.7799,70.2183 66.5,67.5C 68.2741,68.881 69.7741,68.5477 71,66.5C 71.6979,67.6906 72.5313,68.6906 73.5,69.5C 67.3261,68.1729 65.1594,70.5062 67,76.5C 67.2784,77.4158 67.7784,78.0825 68.5,78.5C 70.5,79.1667 72.5,79.8333 74.5,80.5C 81.097,91.7545 90.4304,94.9212 102.5,90C 108.664,84.5106 110.33,78.0106 107.5,70.5C 109.929,72.1457 112.095,74.1457 114,76.5C 115.47,71.7152 115.304,66.8819 113.5,62C 114.085,60.6976 114.751,59.531 115.5,58.5 Z"/></g>
<g><path style="opacity:0.004" fill="#786561" d="M 102.5,99.5 C 103.833,100.167 103.833,100.167 102.5,99.5 Z"/></g>
<g><path style="opacity:0.004" fill="#786561" d="M 96.5,103.5 C 97.8333,104.167 97.8333,104.167 96.5,103.5 Z"/></g>
<g><path style="opacity:0.004" fill="#786561" d="M 38.5,106.5 C 39.8333,107.167 39.8333,107.167 38.5,106.5 Z"/></g>
<g><path style="opacity:0.004" fill="#786561" d="M 92.5,106.5 C 93.5735,107.251 93.7401,108.251 93,109.5C 92.5172,108.552 92.3505,107.552 92.5,106.5 Z"/></g>
<g><path style="opacity:0.004" fill="#786561" d="M 114.5,108.5 C 116.288,107.378 118.288,107.211 120.5,108C 118.527,108.495 116.527,108.662 114.5,108.5 Z"/></g>
<g><path style="opacity:0.004" fill="#786561" d="M 38.5,109.5 C 37.8333,108.167 37.8333,108.167 38.5,109.5 Z"/></g>
<g><path style="opacity:0.004" fill="#786561" d="M 136.5,110.5 C 139.304,109.362 142.304,109.195 145.5,110C 142.518,110.498 139.518,110.665 136.5,110.5 Z"/></g>
<g><path style="opacity:0.004" fill="#786561" d="M 36.5,112.5 C 35.8333,111.167 35.8333,111.167 36.5,112.5 Z"/></g>
<g><path style="opacity:1" fill="#a38f8f" d="M 68.5,121.5 C 69.8729,128.777 70.8729,136.111 71.5,143.5C 75.6501,142.65 79.9835,141.317 84.5,139.5C 84.3573,141.262 84.6906,142.929 85.5,144.5C 85.0233,145.478 84.3567,146.311 83.5,147C 78.6073,148.742 73.6073,150.242 68.5,151.5C 67.5,151.333 66.5,151.167 65.5,151C 63.0394,142.94 60.3727,135.107 57.5,127.5C 57.6309,126.624 57.2975,125.957 56.5,125.5C 52.389,128.091 48.0557,129.091 43.5,128.5C 48.6493,117.538 55.4826,107.871 64,99.5C 65.8294,101.156 67.1628,103.156 68,105.5C 68.4994,110.823 68.666,116.156 68.5,121.5 Z"/></g>
<g><path style="opacity:0.004" fill="#786561" d="M 35.5,114.5 C 34.8333,113.167 34.8333,113.167 35.5,114.5 Z"/></g>
<g><path style="opacity:0.004" fill="#786561" d="M 148.5,113.5 C 149.525,113.897 149.692,114.563 149,115.5C 148.536,114.906 148.369,114.239 148.5,113.5 Z"/></g>
<g><path style="opacity:1" fill="#3f3334" d="M 87.5,121.5 C 86.1768,124.999 83.8435,127.165 80.5,128C 81.2524,127.329 81.5858,126.496 81.5,125.5C 83.8321,120.172 86.1655,114.838 88.5,109.5C 89.2216,109.082 89.7216,108.416 90,107.5C 90.958,112.513 90.1247,117.179 87.5,121.5 Z"/></g>
<g><path style="opacity:1" fill="#3f3435" d="M 67.5,97.5 C 70.1999,99.046 72.0332,101.379 73,104.5C 73.9299,110.014 73.4299,115.348 71.5,120.5C 70.7784,120.918 70.2784,121.584 70,122.5C 69.6174,121.944 69.1174,121.611 68.5,121.5C 68.666,116.156 68.4994,110.823 68,105.5C 67.1628,103.156 65.8294,101.156 64,99.5C 55.4826,107.871 48.6493,117.538 43.5,128.5C 48.0557,129.091 52.389,128.091 56.5,125.5C 57.2975,125.957 57.6309,126.624 57.5,127.5C 57.5,128.5 57.5,129.5 57.5,130.5C 55.4471,130.402 53.7804,131.069 52.5,132.5C 48.4525,132.84 44.4525,133.506 40.5,134.5C 39.8728,135.417 39.5394,136.417 39.5,137.5C 35.7484,135.662 33.7484,132.662 33.5,128.5C 35.793,115.401 42.4596,105.235 53.5,98C 58.2162,98.1895 62.8828,98.0228 67.5,97.5 Z"/></g>
<g><path style="opacity:0.004" fill="#786561" d="M 147.5,117.5 C 148.598,118.601 148.765,119.934 148,121.5C 147.51,120.207 147.343,118.873 147.5,117.5 Z"/></g>
<g><path style="opacity:0.004" fill="#786561" d="M 32.5,121.5 C 31.8333,120.167 31.8333,120.167 32.5,121.5 Z"/></g>
<g><path style="opacity:0.004" fill="#786561" d="M 31.5,126.5 C 30.4017,125.399 30.235,124.066 31,122.5C 31.49,123.793 31.6567,125.127 31.5,126.5 Z"/></g>
<g><path style="opacity:0.004" fill="#786561" d="M 29.5,127.5 C 30.5983,128.601 30.765,129.934 30,131.5C 29.51,130.207 29.3433,128.873 29.5,127.5 Z"/></g>
<g><path style="opacity:0.039" fill="#7a6461" d="M 119.5,64.5 C 120.562,68.6309 121.229,72.9643 121.5,77.5C 121.615,80.4088 120.949,83.0754 119.5,85.5C 118.833,85.5 118.5,85.8333 118.5,86.5C 117.833,86.5 117.5,86.8333 117.5,87.5C 116.167,88.1667 115.167,89.1667 114.5,90.5C 113.833,90.5 113.5,90.8333 113.5,91.5C 111.223,92.4486 109.223,93.7819 107.5,95.5C 105.611,96.604 103.945,97.9373 102.5,99.5C 100.223,100.449 98.2228,101.782 96.5,103.5C 94.5956,103.738 93.2623,104.738 92.5,106.5C 91.3814,111.347 91.3814,116.347 92.5,121.5C 91.1667,122.5 91.1667,123.5 92.5,124.5C 92.7329,127.542 93.7329,130.208 95.5,132.5C 95.56,133.043 95.8933,133.376 96.5,133.5C 97.5372,129.311 100.204,127.645 104.5,128.5C 106.386,129.93 108.053,131.597 109.5,133.5C 111.399,137.283 110.732,140.45 107.5,143C 107.833,143.333 108.167,143.667 108.5,144C 106.942,144.21 105.609,144.71 104.5,145.5C 101.834,145.933 99.1677,146.433 96.5,147C 101.558,148.01 106.391,147.51 111,145.5C 112.24,133.822 112.574,122.155 112,110.5C 113.043,114.226 113.543,113.893 113.5,109.5C 121.183,109.523 128.85,109.857 136.5,110.5C 139.897,111.198 143.397,111.865 147,112.5C 146.394,116.505 146.56,120.505 147.5,124.5C 147.333,125.167 147.167,125.833 147,126.5C 146.667,125.5 146.333,124.5 146,123.5C 144.844,128.46 144.011,133.46 143.5,138.5C 141.838,142.446 141.504,146.446 142.5,150.5C 142.084,152.752 140.751,154.252 138.5,155C 120.5,155.667 102.5,155.667 84.5,155C 83.5842,154.722 82.9175,154.222 82.5,153.5C 83.5,153.5 84.5,153.5 85.5,153.5C 137.896,154.39 143.229,154.39 101.5,153.5C 101.5,153.167 101.5,152.833 101.5,152.5C 114.5,152.5 127.5,152.5 140.5,152.5C 141.84,139.462 143.506,126.462 145.5,113.5C 143.052,112.527 140.385,112.194 137.5,112.5C 129.928,111.683 122.428,111.683 115,112.5C 113.283,124.439 112.45,136.439 112.5,148.5C 106.833,148.5 101.167,148.5 95.5,148.5C 95.5,147.5 95.5,146.5 95.5,145.5C 98.3913,141.764 98.058,138.43 94.5,135.5C 93.4923,133.661 91.9923,132.328 90,131.5C 89.3028,133.584 88.1361,135.251 86.5,136.5C 85.8333,136.5 85.1667,136.5 84.5,136.5C 86.2062,134.54 88.2062,132.04 90.5,129C 90.0179,126.181 89.0179,123.681 87.5,121.5C 90.1247,117.179 90.958,112.513 90,107.5C 89.7216,108.416 89.2216,109.082 88.5,109.5C 81.7947,108.126 76.128,104.626 71.5,99C 76.1146,101.631 81.1146,103.797 86.5,105.5C 91.6463,104.096 95.9797,101.43 99.5,97.5C 99.9731,96.0937 100.973,95.427 102.5,95.5C 107.722,92.4578 112.555,88.7911 117,84.5C 118.808,77.7384 118.975,70.9051 117.5,64C 117.667,63.5 117.833,63 118,62.5C 118.278,63.4158 118.778,64.0825 119.5,64.5 Z M 98.5,144.5 C 99.0768,143.227 99.7435,143.227 100.5,144.5C 100.03,145.463 99.3635,145.463 98.5,144.5 Z"/></g>
<g><path style="opacity:0.004" fill="#786561" d="M 104.5,127.5 C 105.833,128.167 105.833,128.167 104.5,127.5 Z"/></g>
<g><path style="opacity:0.004" fill="#786561" d="M 100.5,127.5 C 101.251,126.427 102.251,126.26 103.5,127C 102.552,127.483 101.552,127.649 100.5,127.5 Z"/></g>
<g><path style="opacity:0.004" fill="#786561" d="M 92.5,121.5 C 93.8333,122.5 93.8333,123.5 92.5,124.5C 92.5,123.5 92.5,122.5 92.5,121.5 Z"/></g>
<g><path style="opacity:0.004" fill="#786561" d="M 110.5,117.5 C 111.645,121.311 111.812,125.311 111,129.5C 110.501,125.514 110.334,121.514 110.5,117.5 Z"/></g>
<g><path style="opacity:1" fill="#3e3334" d="M 137.5,112.5 C 140.385,112.194 143.052,112.527 145.5,113.5C 139.833,113.664 139.5,113.997 144.5,114.5C 144.435,116.696 143.768,118.696 142.5,120.5C 141.355,119.224 141.355,117.891 142.5,116.5C 140.833,115.167 139.167,115.167 137.5,116.5C 139.772,118.053 141.105,120.219 141.5,123C 141.484,125.984 141.484,128.984 141.5,132C 140.922,133.811 140.422,135.645 140,137.5C 139.781,136.062 139.281,134.729 138.5,133.5C 137.523,137.726 136.023,141.726 134,145.5C 128.583,146.309 123.083,146.809 117.5,147C 122.833,147.333 128.167,147.667 133.5,148C 127.167,148.667 120.833,148.667 114.5,148C 113.978,147.439 113.645,146.772 113.5,146C 116.346,135.066 117.679,123.899 117.5,112.5C 124.336,113.319 131.003,113.319 137.5,112.5 Z"/></g>
<g><path style="opacity:0.004" fill="#786561" d="M 92.5,111.5 C 93.6129,112.946 93.7796,114.613 93,116.5C 92.5065,114.866 92.3398,113.199 92.5,111.5 Z"/></g>
<g><path style="opacity:0.004" fill="#786561" d="M 95.5,132.5 C 95.369,131.761 95.5357,131.094 96,130.5C 96.6917,131.437 96.525,132.103 95.5,132.5 Z"/></g>
<g><path style="opacity:0.004" fill="#786561" d="M 109.5,133.5 C 109.369,132.761 109.536,132.094 110,131.5C 110.692,132.437 110.525,133.103 109.5,133.5 Z"/></g>
<g><path style="opacity:0.004" fill="#786561" d="M 31.5,132.5 C 30.8333,133.167 30.8333,133.167 31.5,132.5 Z"/></g>
<g><path style="opacity:0.996" fill="#7d2b28" d="M 94.5,135.5 C 92.3218,137.858 90.6551,140.525 89.5,143.5C 88.7784,143.918 88.2784,144.584 88,145.5C 86.8512,142.607 86.3512,139.607 86.5,136.5C 88.1361,135.251 89.3028,133.584 90,131.5C 91.9923,132.328 93.4923,133.661 94.5,135.5 Z"/></g>
<g><path style="opacity:1" fill="#7c2824" d="M 105.5,133.5 C 103.216,133.975 101.216,134.975 99.5,136.5C 99.1814,134.25 99.6814,132.25 101,130.5C 101.667,131.833 102.333,131.833 103,130.5C 104.417,131.078 105.25,132.078 105.5,133.5 Z"/></g>
<g><path style="opacity:0.004" fill="#786561" d="M 144.5,133.5 C 145.598,134.601 145.765,135.934 145,137.5C 144.51,136.207 144.343,134.873 144.5,133.5 Z"/></g>
<g><path style="opacity:1" fill="#f2a684" d="M 105.5,133.5 C 109.267,136.377 109.267,139.21 105.5,142C 101.164,142.833 99.1638,141 99.5,136.5C 101.216,134.975 103.216,133.975 105.5,133.5 Z"/></g>
<g><path style="opacity:0.004" fill="#786561" d="M 143.5,138.5 C 144.613,139.946 144.78,141.613 144,143.5C 143.506,141.866 143.34,140.199 143.5,138.5 Z"/></g>
<g><path style="opacity:1" fill="#f2a481" d="M 94.5,135.5 C 98.058,138.43 98.3913,141.764 95.5,145.5C 93.6208,146.341 91.6208,146.675 89.5,146.5C 89.5,145.5 89.5,144.5 89.5,143.5C 90.6551,140.525 92.3218,137.858 94.5,135.5 Z"/></g>
<g><path style="opacity:0.004" fill="#786561" d="M 35.5,142.5 C 34.475,142.103 34.3083,141.437 35,140.5C 35.4643,141.094 35.631,141.761 35.5,142.5 Z"/></g>
<g><path style="opacity:0.004" fill="#786561" d="M 109.5,142.5 C 110.833,143.167 110.833,143.167 109.5,142.5 Z"/></g>
<g><path style="opacity:1" fill="#392e2e" d="M 137.5,112.5 C 131.003,113.319 124.336,113.319 117.5,112.5C 117.679,123.899 116.346,135.066 113.5,146C 113.645,146.772 113.978,147.439 114.5,148C 120.833,148.667 127.167,148.667 133.5,148C 128.167,147.667 122.833,147.333 117.5,147C 123.083,146.809 128.583,146.309 134,145.5C 136.023,141.726 137.523,137.726 138.5,133.5C 139.281,134.729 139.781,136.062 140,137.5C 140.422,135.645 140.922,133.811 141.5,132C 141.484,128.984 141.484,125.984 141.5,123C 141.105,120.219 139.772,118.053 137.5,116.5C 139.167,115.167 140.833,115.167 142.5,116.5C 141.355,117.891 141.355,119.224 142.5,120.5C 143.768,118.696 144.435,116.696 144.5,114.5C 139.5,113.997 139.833,113.664 145.5,113.5C 143.506,126.462 141.84,139.462 140.5,152.5C 127.5,152.5 114.5,152.5 101.5,152.5C 95.1318,152.83 88.7985,152.496 82.5,151.5C 83.3805,150.029 84.7139,149.196 86.5,149C 89.4816,148.502 92.4816,148.335 95.5,148.5C 101.167,148.5 106.833,148.5 112.5,148.5C 112.45,136.439 113.283,124.439 115,112.5C 122.428,111.683 129.928,111.683 137.5,112.5 Z"/></g>
<g><path style="opacity:1" fill="#dfdbdb" d="M 130.5,125.5 C 133.956,126.536 134.29,128.203 131.5,130.5C 130.548,128.955 130.215,127.288 130.5,125.5 Z"/></g>
<g><path style="opacity:0.004" fill="#786561" d="M 32.5,146.5 C 31.8333,145.167 31.8333,145.167 32.5,146.5 Z"/></g>
<g><path style="opacity:0.004" fill="#786561" d="M 104.5,145.5 C 105.239,145.369 105.906,145.536 106.5,146C 105.563,146.692 104.897,146.525 104.5,145.5 Z"/></g>
<g><path style="opacity:0.004" fill="#786561" d="M 142.5,150.5 C 142.34,148.801 142.506,147.134 143,145.5C 143.78,147.387 143.613,149.054 142.5,150.5 Z"/></g>
<g><path style="opacity:0.004" fill="#786561" d="M 30.5,147.5 C 31.6129,148.946 31.7796,150.613 31,152.5C 30.5065,150.866 30.3398,149.199 30.5,147.5 Z"/></g>
<g><path style="opacity:0.192" fill="#86716f" d="M 94.5,28.5 C 96.0455,29.6396 97.7121,30.6396 99.5,31.5C 100.5,33.1667 101.833,34.5 103.5,35.5C 105.321,36.1174 107.321,36.284 109.5,36C 107.122,36.9745 107.456,37.6411 110.5,38C 113.121,40.1141 115.121,42.6141 116.5,45.5C 116.721,48.0673 117.388,50.4006 118.5,52.5C 118.216,54.4147 118.549,56.0813 119.5,57.5C 119.5,59.8333 119.5,62.1667 119.5,64.5C 118.778,64.0825 118.278,63.4158 118,62.5C 117.833,63 117.667,63.5 117.5,64C 118.975,70.9051 118.808,77.7384 117,84.5C 112.555,88.7911 107.722,92.4578 102.5,95.5C 107.802,91.0297 112.636,86.0297 117,80.5C 117.098,73.14 116.598,65.8066 115.5,58.5C 115.122,54.3219 114.122,50.3219 112.5,46.5C 113.043,46.44 113.376,46.1067 113.5,45.5C 111.749,40.5879 108.249,38.2546 103,38.5C 100.428,35.2628 97.2612,32.7628 93.5,31C 81.5445,26.1995 69.7112,26.3662 58,31.5C 57.7966,43.5686 56.7966,55.5686 55,67.5C 53.3614,71.2775 51.8614,75.1108 50.5,79C 50.8623,80.2247 51.3623,81.3914 52,82.5C 57.744,87.0801 62.9106,92.0801 67.5,97.5C 62.8828,98.0228 58.2162,98.1895 53.5,98C 42.4596,105.235 35.793,115.401 33.5,128.5C 33.7484,132.662 35.7484,135.662 39.5,137.5C 39.162,139.854 38.662,142.187 38,144.5C 36.185,146.1 35.0183,148.1 34.5,150.5C 40.4632,151.496 46.4632,151.829 52.5,151.5C 53.0183,144.983 53.0183,138.65 52.5,132.5C 53.7804,131.069 55.4471,130.402 57.5,130.5C 57.5,129.5 57.5,128.5 57.5,127.5C 60.3727,135.107 63.0394,142.94 65.5,151C 66.5,151.167 67.5,151.333 68.5,151.5C 73.6073,150.242 78.6073,148.742 83.5,147C 84.3567,146.311 85.0233,145.478 85.5,144.5C 84.6906,142.929 84.3573,141.262 84.5,139.5C 79.9835,141.317 75.6501,142.65 71.5,143.5C 70.8729,136.111 69.8729,128.777 68.5,121.5C 69.1174,121.611 69.6174,121.944 70,122.5C 70.2784,121.584 70.7784,120.918 71.5,120.5C 72.6772,126.304 76.0105,127.971 81.5,125.5C 81.5858,126.496 81.2524,127.329 80.5,128C 83.8435,127.165 86.1768,124.999 87.5,121.5C 89.0179,123.681 90.0179,126.181 90.5,129C 88.2062,132.04 86.2062,134.54 84.5,136.5C 85.1667,136.5 85.8333,136.5 86.5,136.5C 86.3512,139.607 86.8512,142.607 88,145.5C 88.2784,144.584 88.7784,143.918 89.5,143.5C 89.5,144.5 89.5,145.5 89.5,146.5C 91.6208,146.675 93.6208,146.341 95.5,145.5C 95.5,146.5 95.5,147.5 95.5,148.5C 92.4816,148.335 89.4816,148.502 86.5,149C 84.7139,149.196 83.3805,150.029 82.5,151.5C 88.7985,152.496 95.1318,152.83 101.5,152.5C 101.5,152.833 101.5,153.167 101.5,153.5C 96.1667,153.5 90.8333,153.5 85.5,153.5C 84.5,153.5 83.5,153.5 82.5,153.5C 81.1667,153.167 79.8333,152.833 78.5,152.5C 77.0536,151.387 75.3869,151.22 73.5,152C 72.1416,152.934 70.8083,153.768 69.5,154.5C 58.2428,155.643 46.9095,155.81 35.5,155C 32.9629,152.805 31.9629,149.972 32.5,146.5C 33.4884,145.205 34.4884,143.872 35.5,142.5C 36.2485,141.469 36.9152,140.302 37.5,139C 34.6865,137.506 32.6865,135.34 31.5,132.5C 31.5,130.5 31.5,128.5 31.5,126.5C 32.4511,125.081 32.7845,123.415 32.5,121.5C 34.3505,120.134 34.6838,118.467 33.5,116.5C 33.8457,115.304 34.3457,115.304 35,116.5C 35.4643,115.906 35.631,115.239 35.5,114.5C 36.3382,114.158 36.6716,113.492 36.5,112.5C 37.4013,111.71 38.0679,110.71 38.5,109.5C 40.0331,107.645 41.6997,105.812 43.5,104C 43.1667,103.667 42.8333,103.333 42.5,103C 46.0085,100.97 49.3419,98.8036 52.5,96.5C 56.5138,96.6655 60.5138,96.4988 64.5,96C 60.8333,95.6667 57.1667,95.3333 53.5,95C 56.1667,94.6667 58.8333,94.3333 61.5,94C 60.9558,93.2828 60.2891,92.7828 59.5,92.5C 55.5271,89.1938 51.8604,85.5271 48.5,81.5C 48.5,79.1667 48.5,76.8333 48.5,74.5C 49.8897,73.1007 50.8897,71.4341 51.5,69.5C 52.4614,67.7354 52.7947,65.7354 52.5,63.5C 53.23,57.7325 54.23,51.8992 55.5,46C 55.4915,44.2933 55.1582,42.7933 54.5,41.5C 54.5,38.5 54.5,35.5 54.5,32.5C 55.593,30.6508 56.9263,28.9842 58.5,27.5C 59.791,27.7373 60.791,27.404 61.5,26.5C 64.5219,26.196 67.5219,25.696 70.5,25C 69.5,24.6667 68.5,24.3333 67.5,24C 72.8333,23.3333 78.1667,23.3333 83.5,24C 79.8333,24.3333 76.1667,24.6667 72.5,25C 80.0546,24.976 87.388,26.1427 94.5,28.5 Z M 80.5,133.5 C 80.5,134.5 80.5,135.5 80.5,136.5C 79.8333,137.167 79.1667,137.833 78.5,138.5C 78.4021,136.447 79.0687,134.78 80.5,133.5 Z"/></g>
<g><path style="opacity:1" fill="#a49090" d="M 52.5,132.5 C 53.0183,138.65 53.0183,144.983 52.5,151.5C 46.4632,151.829 40.4632,151.496 34.5,150.5C 35.0183,148.1 36.185,146.1 38,144.5C 38.662,142.187 39.162,139.854 39.5,137.5C 39.5394,136.417 39.8728,135.417 40.5,134.5C 44.4525,133.506 48.4525,132.84 52.5,132.5 Z"/></g>
<g><path style="opacity:1" fill="#eca788" d="M 107.5,70.5 C 110.33,78.0106 108.664,84.5106 102.5,90C 90.4304,94.9212 81.097,91.7545 74.5,80.5C 77.7945,82.1577 80.7945,84.3244 83.5,87C 85.4727,87.4955 87.4727,87.6621 89.5,87.5C 89.5,88.5 89.5,89.5 89.5,90.5C 91.1992,90.6602 92.8659,90.4935 94.5,90C 94.9963,88.0036 95.9963,86.3369 97.5,85C 97.1667,84.6667 96.8333,84.3333 96.5,84C 98.0609,83.6824 99.2276,82.8491 100,81.5C 100.718,82.4506 101.551,82.6172 102.5,82C 101.24,80.1862 101.24,78.3529 102.5,76.5C 103.452,78.0453 103.785,79.712 103.5,81.5C 106.389,80.9515 108.056,79.1182 108.5,76C 104.65,67.6829 98.3164,65.1829 89.5,68.5C 95.9994,65.216 101.999,65.8827 107.5,70.5 Z"/></g>
<g><path style="opacity:1" fill="#f9a27d" d="M 74.5,80.5 C 72.5,79.8333 70.5,79.1667 68.5,78.5C 68.0798,76.326 68.0798,74.326 68.5,72.5C 73.1315,71.6717 77.7982,71.1717 82.5,71C 83.056,70.6174 83.3893,70.1174 83.5,69.5C 85.4352,68.8505 87.4352,68.5172 89.5,68.5C 98.3164,65.1829 104.65,67.6829 108.5,76C 108.056,79.1182 106.389,80.9515 103.5,81.5C 103.785,79.712 103.452,78.0453 102.5,76.5C 101.24,78.3529 101.24,80.1862 102.5,82C 101.551,82.6172 100.718,82.4506 100,81.5C 99.2276,82.8491 98.0609,83.6824 96.5,84C 96.8333,84.3333 97.1667,84.6667 97.5,85C 95.9963,86.3369 94.9963,88.0036 94.5,90C 92.8659,90.4935 91.1992,90.6602 89.5,90.5C 89.5,89.5 89.5,88.5 89.5,87.5C 87.4727,87.6621 85.4727,87.4955 83.5,87C 80.7945,84.3244 77.7945,82.1577 74.5,80.5 Z"/></g>
<g><path style="opacity:1" fill="#ce9782" d="M 73.5,69.5 C 76.6678,70.4435 80.0012,70.4435 83.5,69.5C 83.3893,70.1174 83.056,70.6174 82.5,71C 77.7982,71.1717 73.1315,71.6717 68.5,72.5C 68.0798,74.326 68.0798,76.326 68.5,78.5C 67.7784,78.0825 67.2784,77.4158 67,76.5C 65.1594,70.5062 67.3261,68.1729 73.5,69.5 Z"/></g>
<g><path style="opacity:1" fill="#877574" d="M 90.5,37.5 C 102.196,37.331 102.196,38.4976 90.5,41C 81.1413,46.1917 72.4746,52.3584 64.5,59.5C 66.1831,55.306 68.5164,51.4727 71.5,48C 77.3302,43.4576 83.6635,39.9576 90.5,37.5 Z"/></g>
<g><path style="opacity:1" fill="#2a2222" d="M 112.5,46.5 C 114.122,50.3219 115.122,54.3219 115.5,58.5C 114.751,59.531 114.085,60.6976 113.5,62C 115.304,66.8819 115.47,71.7152 114,76.5C 112.095,74.1457 109.929,72.1457 107.5,70.5C 101.999,65.8827 95.9994,65.216 89.5,68.5C 87.4352,68.5172 85.4352,68.8505 83.5,69.5C 80.0012,70.4435 76.6678,70.4435 73.5,69.5C 72.5313,68.6906 71.6979,67.6906 71,66.5C 69.7741,68.5477 68.2741,68.881 66.5,67.5C 66.8333,66.8333 67.1667,66.1667 67.5,65.5C 75.1081,60.0189 82.7748,54.5189 90.5,49C 94.674,46.4123 99.0074,44.079 103.5,42C 108.118,40.4224 111.118,41.9224 112.5,46.5 Z"/></g>
<g><path style="opacity:1" fill="#f0eeee" d="M 106.5,59.5 C 107.725,60.1522 108.392,61.3189 108.5,63C 107.709,67.4481 106.709,67.4481 105.5,63C 105.648,61.7441 105.982,60.5774 106.5,59.5 Z"/></g>
<g><path style="opacity:1" fill="#d7d2d3" d="M 86.5,58.5 C 88.8896,58.6848 89.8896,60.0182 89.5,62.5C 88.1667,67.8333 86.8333,67.8333 85.5,62.5C 85.6233,61.0755 85.9566,59.7421 86.5,58.5 Z"/></g>
<g><path style="opacity:1" fill="#a5908f" d="M 90.5,37.5 C 83.6635,39.9576 77.3302,43.4576 71.5,48C 68.5164,51.4727 66.1831,55.306 64.5,59.5C 63.475,59.8966 63.3083,60.5632 64,61.5C 65.6092,60.8499 67.1092,61.3499 68.5,63C 67.7476,63.6708 67.4142,64.5041 67.5,65.5C 64.5448,66.1587 61.5448,66.4921 58.5,66.5C 58.7394,64.5328 58.4061,62.6995 57.5,61C 57.8754,55.2881 58.8754,49.4547 60.5,43.5C 59.8847,40.9607 59.2181,38.4607 58.5,36C 59.2076,33.2324 60.7076,32.3991 63,33.5C 63.4828,32.552 63.6495,31.552 63.5,30.5C 66.7057,31.5324 70.039,32.199 73.5,32.5C 76.3713,32.3823 79.038,31.7156 81.5,30.5C 83.7109,32.6818 86.3775,33.6818 89.5,33.5C 89.4326,34.9587 89.7659,36.2921 90.5,37.5 Z"/></g>
<g><path style="opacity:0.004" fill="#786561" d="M 78.5,152.5 C 77.3991,153.598 76.0657,153.765 74.5,153C 75.7932,152.51 77.1266,152.343 78.5,152.5 Z"/></g>
<g><path style="opacity:0.004" fill="#786561" d="M 69.5,154.5 C 70.2389,154.369 70.9056,154.536 71.5,155C 70.5632,155.692 69.8966,155.525 69.5,154.5 Z"/></g>
</svg>
