<?xml version="1.0" encoding="UTF-8"?>
<!DOCTYPE svg PUBLIC "-//W3C//DTD SVG 1.1//EN" "http://www.w3.org/Graphics/SVG/1.1/DTD/svg11.dtd">
<svg xmlns="http://www.w3.org/2000/svg" version="1.1" width="500px" height="500px" style="shape-rendering:geometricPrecision; text-rendering:geometricPrecision; image-rendering:optimizeQuality; fill-rule:evenodd; clip-rule:evenodd" xmlns:xlink="http://www.w3.org/1999/xlink">
<g><path style="opacity:0.994" fill="#016cff" d="M 228.5,23.5 C 306.874,18.6247 372.041,45.2913 424,103.5C 474.311,167.385 488.644,238.718 467,317.5C 441.833,392 392,441.833 317.5,467C 238.718,488.644 167.385,474.311 103.5,424C 40.7129,367.328 14.8795,296.828 26,212.5C 41.7791,132.394 86.6124,75.2273 160.5,41C 182.483,32.005 205.15,26.1717 228.5,23.5 Z"/></g>
<g><path style="opacity:1" fill="#fcfdff" d="M 412.5,222.5 C 406.5,222.5 400.5,222.5 394.5,222.5C 394.216,224.415 394.549,226.081 395.5,227.5C 398.3,237.703 400.634,248.036 402.5,258.5C 396.742,256.789 391.075,254.789 385.5,252.5C 383.043,263.497 380.043,274.331 376.5,285C 375.5,285.667 374.5,285.667 373.5,285C 371.689,282.022 369.356,279.522 366.5,277.5C 355.366,286.903 343.366,295.07 330.5,302C 318.469,308.016 306.469,314.016 294.5,320C 263.822,329.839 235.488,344.172 209.5,363C 198.456,372.043 189.623,382.876 183,395.5C 180.259,402.914 178.259,410.581 177,418.5C 176.586,418.957 176.086,419.291 175.5,419.5C 173.587,406.936 174.421,394.602 178,382.5C 191.061,356.772 210.228,336.939 235.5,323C 249.544,315.761 263.877,309.094 278.5,303C 304.517,291.589 327.017,275.422 346,254.5C 351.988,246.191 356.654,237.191 360,227.5C 361.885,200.429 350.385,181.596 325.5,171C 296.49,162.445 268.823,165.445 242.5,180C 233.637,185.265 225.304,191.265 217.5,198C 208.452,207.446 200.119,217.446 192.5,228C 178.022,239.074 163.022,249.407 147.5,259C 137.463,267.585 130.296,278.085 126,290.5C 125.442,296.831 126.942,302.665 130.5,308C 111.167,305.56 97.3334,295.393 89,277.5C 88.3333,274.5 88.3333,271.5 89,268.5C 100.51,261.991 110.51,253.657 119,243.5C 121.398,239.943 123.565,236.277 125.5,232.5C 123.506,229.15 120.506,227.65 116.5,228C 119.784,224.595 122.95,221.095 126,217.5C 132.938,205.567 140.271,193.9 148,182.5C 163.288,167.7 178.954,153.367 195,139.5C 211.421,122.137 227.254,104.303 242.5,86C 243.167,85.3333 243.833,85.3333 244.5,86C 235.939,107.297 224.439,126.797 210,144.5C 209.251,145.635 209.417,146.635 210.5,147.5C 232.962,126.21 253.796,103.543 273,79.5C 270.166,89.1857 266.166,98.5191 261,107.5C 254.876,118.251 248.376,128.751 241.5,139C 244.112,138.901 246.779,138.568 249.5,138C 262.48,133.009 274.814,126.676 286.5,119C 288.025,117.991 289.692,117.491 291.5,117.5C 290.577,121.861 290.577,126.194 291.5,130.5C 302.943,125.695 314.443,121.028 326,116.5C 326.5,116.833 327,117.167 327.5,117.5C 325.025,122.592 323.358,127.925 322.5,133.5C 334.183,132.376 345.85,131.043 357.5,129.5C 358.833,129.833 360.167,130.167 361.5,130.5C 357.712,135.244 354.045,140.077 350.5,145C 361.02,147.363 371.686,149.363 382.5,151C 385.01,151.376 387.343,152.21 389.5,153.5C 385.5,157.167 381.5,160.833 377.5,164.5C 387.772,170.774 397.772,177.441 407.5,184.5C 401.899,186.651 396.232,188.651 390.5,190.5C 398.192,200.359 405.692,210.359 413,220.5C 413.692,221.437 413.525,222.103 412.5,222.5 Z"/></g>
<g><path style="opacity:1" fill="#2c78ff" d="M 160.5,194.5 C 165.472,194.242 166.639,196.242 164,200.5C 159.425,205.746 154.258,210.246 148.5,214C 147.365,214.749 146.365,214.583 145.5,213.5C 150.898,207.441 155.898,201.107 160.5,194.5 Z"/></g>
<g><path style="opacity:1" fill="#3b8aff" d="M 412.5,222.5 C 407.025,223.489 401.358,223.822 395.5,223.5C 395.5,224.833 395.5,226.167 395.5,227.5C 394.549,226.081 394.216,224.415 394.5,222.5C 400.5,222.5 406.5,222.5 412.5,222.5 Z"/></g>
</svg>
